<svg xmlns="http://www.w3.org/2000/svg" viewBox="0 0 512 512"><path d="M256 73.825a182.175 182.175 0 0 0-182.172 182.18c0 100.6 81.563 182.17 182.172 182.17s182.17-81.57 182.17-182.17c.001-100.618-81.561-182.18-182.17-182.18zm0 284.546a130.638 130.638 0 0 1-58.992-13.825c-4.65 3.717-25.674 19.15-46.53 11.935a45.77 45.77 0 0 0 14.608-35.56c-16.673-17.666-26.684-40.272-26.684-64.916 0-56.54 52.647-102.375 117.598-102.375s117.606 45.835 117.606 102.375c0 56.531-52.654 102.365-117.606 102.365z" data-name="Chat 02"/></svg>